<?xml version="1.0" encoding="utf-8"?>
<svg version="1.2" baseProfile="tiny"
	 xmlns="http://www.w3.org/2000/svg" xmlns:xlink="http://www.w3.org/1999/xlink" x="0px" y="0px" width="104.3px" height="26px"
	 viewBox="0 0 104.3 26" xml:space="preserve">
    <g>
        <circle fill="#F15249" cx="13.2" cy="13" r="12.5"/>
        <path fill="#C93131" d="M22.1,4.1c4.9,4.9,4.9,12.8,0,17.7s-12.8,4.9-17.7,0"/>
        <polygon fill="#918B70" points="25.5,17.9 13.2,25.1 0.9,17.9 3.5,10.3 13.2,6.2 22.9,10.3 	"/>
        <polyline fill="#75705A" points="13.2,6.2 22.9,10.3 25.5,17.9 13.2,25.1 0.9,17.9 	"/>
        <polygon fill="#918B70" points="12.5,6.5 3.6,6.5 3.6,0.8 6.7,3.3 	"/>
        <polyline fill="#75705A" points="6.7,3.3 12.5,6.5 3.6,6.5 	"/>
        <polygon fill="#918B70" points="13.9,6.5 22.9,6.5 22.9,0.8 19.7,3.3 	"/>
        <polyline fill="#75705A" points="19.7,3.3 13.9,6.5 22.9,6.5 	"/>
        <polygon fill="#E5E1C7" points="3.4,6.5 13.2,3.1 22.9,6.5 20.9,16.6 13.2,20.5 5.4,16.6 	"/>
        <g>
            <polyline fill="#DDDAC0" points="13.2,3.1 22.9,6.5 20.9,16.6 13.2,20.5 		"/>
            <polygon fill="#DDDAC0" points="5.1,5.9 5.5,7.6 13.2,11.5 21,7.6 21.3,5.9 13.2,3.1 		"/>
        </g>
        <polygon fill="#E5E1C7" points="13.3,11.5 21,7.6 21.3,5.9 13.2,3.1 13.2,11.5 	"/>
        <polygon fill="#918B70" points="8.3,4.8 8.5,5.8 13.2,8.2 17.9,5.8 18.1,4.8 13.2,3.1 	"/>
        <polygon fill="#75705A" points="13.2,8.2 17.9,5.8 18.2,4.8 13.2,3.1 	"/>
        <g>
            <path fill="#C6C2A7" d="M12.6,13.8c-0.8,2.1-3.1,3.2-5.1,2.5c-2.1-0.8-3.2-3.1-2.5-5.1"/>
            <path fill="#C6C2A7" d="M13.8,13.8c0.8,2.1,3.1,3.2,5.1,2.5c2.1-0.8,3.2-3.1,2.4-5.1"/>
        </g>
        <g>
            <path fill="#B2AC8D" d="M12.7,13.9C12,15.7,10,16.6,8.2,16c-1.8-0.6-2.8-2.7-2.1-4.5"/>
            <path fill="#B2AC8D" d="M13.7,13.9c0.6,1.8,2.7,2.8,4.5,2.1c1.8-0.6,2.8-2.7,2.1-4.5"/>
        </g>
        <polygon fill="#C6C2A7" points="13.2,20.5 16.7,18.7 13.2,15.3 9.7,18.7 	"/>
        <polygon fill="#B2AC8D" points="10.6,19.2 13.2,20.5 15.7,19.2 13.2,16.6 	"/>
        <polygon fill="#5E6664" points="10,14.7 7.2,13.7 7.2,11.9 10,12.9 	"/>
        <polyline fill="#2F423F" points="10,13 10,14.7 7.2,13.8 	"/>
        <path fill="#FCCC32" d="M9.3,13.3c0,0.4-0.4,0.8-0.8,0.8c-0.4,0-0.8-0.4-0.8-0.8c0-0.4,0.4-0.8,0.8-0.8C9,12.5,9.3,12.9,9.3,13.3z"
		/>
        <path fill="#EFAE0C" d="M9.1,12.8c0.3,0.3,0.3,0.8,0,1.1c-0.3,0.3-0.8,0.3-1.1,0"/>
        <polygon fill="#5E6664" points="16.4,14.7 19.2,13.7 19.2,11.9 16.4,12.9 	"/>
        <polyline fill="#2F423F" points="16.4,13 16.4,14.7 19.2,13.8 	"/>
        <circle fill="#FCCC32" cx="17.8" cy="13.3" r="0.8"/>
        <path fill="#EFAE0C" d="M17.3,13.9c0.3,0.3,0.8,0.3,1.1,0c0.3-0.3,0.3-0.8,0-1.1"/>
        <polygon fill="#FCCC32" points="14.1,17.5 13.2,19.7 12.3,17.5 13.2,15.2 	"/>
        <polyline fill="#EFAE0C" points="13.2,15.2 14.1,17.5 13.2,19.7 	"/>
        <polygon fill="#918B70" points="13.2,14.1 3.3,10.5 3.4,6.5 5.1,9.1 	"/>
        <polyline fill="#75705A" points="5.1,9.1 13.2,14.1 3.3,10.5 	"/>
        <polygon fill="#918B70" points="13.1,14.1 23,10.5 22.9,6.5 21.2,9.1 	"/>
        <polyline fill="#75705A" points="21.2,9.1 13.1,14.1 23,10.5 	"/>
    </g>
    <g>
        <path fill="#3D3D3D" d="M31,3.9h1.3v7.9h9.6V3.9h1.3v18h-1.3v-9h-9.6v9H31V3.9z"/>
        <path fill="#3D3D3D" d="M45.6,15.4c0-4.3,2.8-6.9,5.7-6.9c3.1,0,5,2.2,5,6.1c0,0.3,0,0.7-0.1,1h-9.4c0,3.3,2,5.7,4.9,5.7
		c1.4,0,2.5-0.5,3.5-1.2l0.5,0.9c-1,0.6-2.2,1.3-4.1,1.3C48.3,22.2,45.6,19.7,45.6,15.4z M55.1,14.5c0-3.3-1.5-5-3.9-5
		c-2.2,0-4.2,1.9-4.5,5H55.1z"/>
        <path fill="#3D3D3D" d="M58.7,8.8h1l0.1,2.4h0.1c0.9-1.6,2.2-2.8,3.7-2.8c0.5,0,0.9,0.1,1.3,0.3l-0.3,1.1c-0.4-0.2-0.7-0.2-1.2-0.2
		c-1.2,0-2.6,0.9-3.6,3.4v8.9h-1.2V8.8z"/>
        <path fill="#3D3D3D" d="M66,15.4c0-4.3,2.8-6.9,5.7-6.9c3.1,0,5,2.2,5,6.1c0,0.3,0,0.7-0.1,1h-9.4c0,3.3,2,5.7,4.9,5.7
		c1.4,0,2.5-0.5,3.5-1.2l0.5,0.9c-1,0.6-2.2,1.3-4.1,1.3C68.7,22.2,66,19.7,66,15.4z M75.6,14.5c0-3.3-1.5-5-3.9-5
		c-2.2,0-4.2,1.9-4.5,5H75.6z"/>
        <path fill="#3D3D3D" d="M80.8,18.3V9.9h-2V8.9l2.1-0.1L81,5h1v3.8h3.8v1.1H82v8.5c0,1.7,0.4,2.8,2.2,2.8c0.5,0,1.2-0.2,1.6-0.4
		l0.3,1c-0.8,0.3-1.6,0.5-2.1,0.5C81.6,22.2,80.8,20.6,80.8,18.3z"/>
        <path fill="#3D3D3D" d="M88.6,4.6c0-0.7,0.5-1.1,1.1-1.1c0.6,0,1.1,0.4,1.1,1.1c0,0.6-0.5,1.1-1.1,1.1C89.1,5.7,88.6,5.2,88.6,4.6z
		 M89,8.8h1.2v13.1H89V8.8z"/>
        <path fill="#3D3D3D" d="M93.6,15.4c0-4.4,2.8-6.9,6-6.9c1.8,0,2.9,0.8,3.8,1.6l-0.7,0.8c-0.8-0.8-1.8-1.4-3.1-1.4
		c-2.7,0-4.7,2.4-4.7,5.8c0,3.4,1.9,5.8,4.7,5.8c1.4,0,2.6-0.7,3.5-1.5l0.6,0.8c-1.1,1-2.5,1.7-4.2,1.7
		C96.2,22.2,93.6,19.7,93.6,15.4z"/>
    </g>
</svg>