<?xml version="1.0" encoding="iso-8859-1"?>
<!-- Generator: Adobe Illustrator 19.0.0, SVG Export Plug-In . SVG Version: 6.00 Build 0)  -->
<svg version="1.1" id="Layer_1" xmlns="http://www.w3.org/2000/svg" xmlns:xlink="http://www.w3.org/1999/xlink" x="0px" y="0px"
	 viewBox="0 0 497.7 497.7" style="enable-background:new 0 0 497.7 497.7;" xml:space="preserve">
<circle style="fill:#F15249;" cx="248.85" cy="248.8" r="248.8"/>
<path style="fill:#C93131;" d="M424.85,72.8c96.8,97.6,96.8,254.4,0,352s-254.4,96.8-352,0"/>
<polygon style="fill:#918B70;" points="494.45,348 248.85,491.2 3.25,348 55.25,195.2 248.85,115.2 442.45,195.2 "/>
<polyline style="fill:#75705A;" points="248.85,115.2 442.45,195.2 494.45,348 248.85,491.2 3.25,348 "/>
<polygon style="fill:#918B70;" points="235.25,120.8 56.85,120.8 56.85,6.4 120.05,56.8 "/>
<polyline style="fill:#75705A;" points="120.05,56.8 235.25,120.8 56.85,120.8 "/>
<polygon style="fill:#918B70;" points="262.45,120.8 440.85,120.8 440.85,6.4 377.65,56.8 "/>
<polyline style="fill:#75705A;" points="377.65,56.8 262.45,120.8 440.85,120.8 "/>
<polygon style="fill:#E5E1C7;" points="53.65,120 248.05,52 442.45,120 402.45,321.6 248.05,398.4 93.65,321.6 "/>
<g>
	<polyline style="fill:#DDDAC0;" points="248.05,52 442.45,120 402.45,321.6 248.05,398.4 	"/>
	<polygon style="fill:#DDDAC0;" points="87.25,108 94.45,143.2 248.85,220 403.25,143.2 410.45,108.8 248.05,52 	"/>
</g>
<polygon style="fill:#E5E1C7;" points="249.65,220 404.05,143.2 410.45,108.8 248.85,52 248.85,219.2 "/>
<polygon style="fill:#918B70;" points="151.25,85.6 155.25,107.2 248.85,153.6 342.45,107.2 346.45,86.4 248.85,52 "/>
<polygon style="fill:#75705A;" points="248.85,153.6 342.45,107.2 347.25,86.4 248.85,52 "/>
<g>
	<path style="fill:#C6C2A7;" d="M236.05,266.4c-15.2,41.6-60.8,63.2-102.4,48.8c-41.6-15.2-63.2-60.8-48.8-102.4"/>
	<path style="fill:#C6C2A7;" d="M260.05,266.4c15.2,41.6,60.8,63.2,102.4,48.8c41.6-15.2,63.2-60.8,48-102.4"/>
</g>
<g>
	<path style="fill:#B2AC8D;" d="M237.65,267.2c-12.8,36-52.8,55.2-88.8,42.4c-36-12.8-55.2-52.8-42.4-88.8"/>
	<path style="fill:#B2AC8D;" d="M258.45,267.2c12.8,36,52.8,55.2,88.8,42.4c36-12.8,55.2-52.8,42.4-88.8"/>
</g>
<polygon style="fill:#C6C2A7;" points="248.05,398.4 317.65,364 248.05,295.2 179.25,364 "/>
<polygon style="fill:#B2AC8D;" points="197.65,372.8 248.05,398.4 299.25,372.8 248.05,322.4 "/>
<polygon style="fill:#5E6664;" points="184.85,284 128.85,264 128.85,228.8 184.85,248 "/>
<polyline style="fill:#2F423F;" points="184.85,248.8 184.85,284 129.65,264.8 "/>
<path style="fill:#FCCC32;" d="M171.25,256c0,8.8-7.2,15.2-15.2,15.2c-8.8,0-15.2-7.2-15.2-15.2c0-8,7.2-15.2,15.2-15.2
	C164.05,240.8,171.25,247.2,171.25,256z"/>
<path style="fill:#EFAE0C;" d="M166.45,244.8c6.4,6.4,6.4,16,0,21.6c-6.4,6.4-16,6.4-21.6,0"/>
<polygon style="fill:#5E6664;" points="312.85,284 368.85,264 368.85,228.8 312.85,248 "/>
<polyline style="fill:#2F423F;" points="312.85,248.8 312.85,284 368.05,264.8 "/>
<circle style="fill:#FCCC32;" cx="340.85" cy="256" r="15.2"/>
<path style="fill:#EFAE0C;" d="M329.65,267.2c6.4,6.4,16,6.4,21.6,0c6.4-6.4,6.4-16,0-21.6"/>
<polygon style="fill:#FCCC32;" points="265.65,340 248.05,382.4 230.45,340 248.05,294.4 "/>
<polyline style="fill:#EFAE0C;" points="248.05,294.4 265.65,340 248.05,382.4 "/>
<polygon style="fill:#918B70;" points="248.85,272 52.05,200.8 53.65,120 88.05,172.8 "/>
<polyline style="fill:#75705A;" points="88.05,172.8 248.85,272 52.05,200.8 "/>
<polygon style="fill:#918B70;" points="247.25,272 444.05,200.8 442.45,120 408.05,172.8 "/>
<polyline style="fill:#75705A;" points="408.05,172.8 247.25,272 444.05,200.8 "/>
<g>
</g>
<g>
</g>
<g>
</g>
<g>
</g>
<g>
</g>
<g>
</g>
<g>
</g>
<g>
</g>
<g>
</g>
<g>
</g>
<g>
</g>
<g>
</g>
<g>
</g>
<g>
</g>
<g>
</g>
</svg>
